#!OML:ASF F:\VICON\USERDATA\INSTALL\rory3\rory3.ASF
:FULLY-SPECIFIED
:DEGREES
2388
root 1.15956 18.748 -1.87877 2.41 -16.9063 -2.21732
lowerback 7.48205 -0.404007 -2.32907
upperback 0.0934662 -0.744714 -0.0815234
thorax -4.07227 -0.324985 1.30541
lowerneck -11.0968 -5.77725 -10.7363
upperneck 8.13137 -7.29216 10.7387
head 5.05362 -3.29506 4.52049
rclavicle 4.22914e-014 8.34896e-015
rhumerus -36.673 -1.23364 -82.0825
rradius 25.8558
rwrist 7.97945
rhand -31.219 7.09251
rfingers 7.12502
rthumb -4.49457 -22.8398
lclavicle 4.22914e-014 8.34896e-015
lhumerus -29.4704 -3.1719 77.9501
lradius 84.9716
lwrist 17.7319
lhand -33.4103 10.3794
lfingers 7.12502
lthumb -6.61028 40.2563
rfemur -13.2075 21.8558 14.5918
rtibia 29.2492
rfoot -16.3728 -14.6192
rtoes -7.08911
lfemur -8.96602 -3.25305 -20.9495
ltibia 27.2582
lfoot -20.4115 18.343
ltoes -4.8036
2389
root 1.17343 18.7633 -1.87818 2.51964 -16.9614 -2.35483
lowerback 7.36629 -0.42944 -2.28534
upperback 0.059526 -0.767422 0.0284064
thorax -4.04062 -0.336125 1.39598
lowerneck -11.2332 -5.70316 -10.7163
upperneck 8.26578 -7.19881 10.7972
head 5.10909 -3.24056 4.54242
rclavicle 6.4605e-016 2.38542e-015
rhumerus -37.0457 -1.40667 -81.7249
rradius 24.5888
rwrist 8.90561
rhand -32.569 11.501
rfingers 7.12502
rthumb -5.79812 -18.3996
lclavicle 6.4605e-016 2.38542e-015
lhumerus -30.1425 -1.91533 77.9001
lradius 82.3675
lwrist 16.2628
lhand -34.1607 11.0008
lfingers 7.12502
lthumb -7.33472 40.8536
rfemur -13.2437 22.0849 14.643
rtibia 28.9713
rfoot -16.1848 -14.1658
rtoes -7.44839
lfemur -8.76234 -3.78827 -20.8869
ltibia 26.8525
lfoot -20.5741 18.7509
ltoes -4.12103
2390
root 1.18694 18.7748 -1.88188 2.694 -16.9839 -2.59157
lowerback 7.26041 -0.500623 -2.17061
upperback 0.0574427 -0.844832 0.146812
thorax -3.97993 -0.376356 1.46091
lowerneck -11.4928 -5.61402 -10.574
upperneck 8.33585 -7.08376 10.8159
head 5.1571 -3.17048 4.53155
rclavicle 5.46658e-016 1.15295e-014
rhumerus -37.2975 -1.44654 -81.4638
rradius 23.5329
rwrist 10.3208
rhand -32.8852 12.0455
rfingers 7.12502
rthumb -6.10337 -17.8466
lclavicle 5.46658e-016 1.15295e-014
lhumerus -30.7815 -0.605472 77.7373
lradius 79.8407
lwrist 14.6509
lhand -34.6774 11.5018
lfingers 7.12502
lthumb -7.83339 41.3366
rfemur -13.3489 22.281 14.7842
rtibia 28.6697
rfoot -15.9315 -13.8388
rtoes -7.74637
lfemur -8.70912 -4.15834 -20.6929
ltibia 26.5756
lfoot -20.6067 19.0706
ltoes -3.06587
2391
root 1.19928 18.7787 -1.88996 2.86768 -16.8881 -2.85229
lowerback 7.31652 -0.591938 -2.02082
upperback -0.0135319 -0.950779 0.265078
thorax -4.08117 -0.428826 1.5118
lowerneck -11.5764 -5.51086 -10.4212
upperneck 8.25856 -6.96122 10.8641
head 5.13042 -3.10094 4.53245
rclavicle 2.46493e-014 -9.93923e-015
rhumerus -37.6588 -1.61232 -81.0805
rradius 22.6276
rwrist 12.3831
rhand -32.323 9.91155
rfingers 7.12502
rthumb -5.56061 -19.9955
lclavicle 2.46493e-014 -9.93923e-015
lhumerus -31.5103 0.533327 77.5637
lradius 77.5282
lwrist 13.1993
lhand -35.4183 10.8345
lfingers 7.12502
lthumb -8.54848 40.6414
rfemur -13.4458 22.4742 14.9647
rtibia 28.4088
rfoot -15.6203 -13.7895
rtoes -7.70942
lfemur -8.71973 -4.76615 -20.4622
ltibia 26.3682
lfoot -20.8308 19.429
ltoes -2.401
2392
root 1.20718 18.7757 -1.90092 3.07638 -16.731 -3.01188
lowerback 7.42258 -0.694529 -2.04524
upperback -0.172758 -1.08752 0.396367
thorax -4.29787 -0.490598 1.67975
lowerneck -11.5689 -5.44669 -10.3275
upperneck 8.16989 -6.88649 10.8877
head 5.09143 -3.06095 4.53199
rclavicle 3.73715e-014 -7.15625e-015
rhumerus -38.2702 -1.43242 -80.8162
rradius 22.126
rwrist 13.9639
rhand -31.9601 8.77907
rfingers 7.12502
rthumb -5.21019 -21.1369
lclavicle 3.73715e-014 -7.15625e-015
lhumerus -32.3191 1.50651 77.3936
lradius 75.3513
lwrist 12.0291
lhand -36.4408 10.3219
lfingers 7.12502
lthumb -9.53517 40.0861
rfemur -13.6167 22.6741 15.0252
rtibia 28.2184
rfoot -15.2771 -13.8221
rtoes -6.88634
lfemur -8.78902 -5.53712 -20.3218
ltibia 26.1639
lfoot -21.2037 19.8141
ltoes -2.25204
2393
root 1.21119 18.7714 -1.90414 3.15979 -16.4974 -2.79493
lowerback 7.34267 -0.825201 -2.42472
upperback -0.183794 -1.29221 0.408143
thorax -4.24721 -0.584293 1.92586
lowerneck -11.8295 -5.43275 -10.1789
upperneck 8.0728 -6.86529 10.9198
head 5.09913 -3.03688 4.51532
rclavicle -4.61677e-014 3.97569e-015
rhumerus -38.6575 -1.11656 -80.7106
rradius 21.782
rwrist 15.0721
rhand -31.5823 9.30794
rfingers 7.12502
rthumb -4.84544 -20.6167
lclavicle -4.61677e-014 3.97569e-015
lhumerus -32.93 2.46452 77.1693
lradius 73.3533
lwrist 11.336
lhand -36.9971 10.3903
lfingers 7.12502
lthumb -10.0718 40.1293
rfemur -13.7256 22.7865 14.7372
rtibia 28.0954
rfoot -14.8843 -13.8524
rtoes -6.03948
lfemur -8.80304 -6.20168 -20.5642
ltibia 25.9571
lfoot -21.5358 19.9925
ltoes -2.1967
2394
root 1.21269 18.7671 -1.90295 3.20226 -16.2293 -2.35091
lowerback 7.12266 -0.991543 -3.00955
upperback -0.139548 -1.55937 0.338499
thorax -4.05097 -0.70898 2.20436
lowerneck -12.0095 -5.37893 -10.0536
upperneck 7.8022 -6.79561 11.0758
head 5.04056 -2.98665 4.54821
rclavicle -3.84648e-014 -3.57812e-015
rhumerus -38.9265 -0.829888 -80.6496
rradius 21.4631
rwrist 16.1567
rhand -31.0284 9.89042
rfingers 7.12502
rthumb -4.31061 -20.0457
lclavicle -3.84648e-014 -3.57812e-015
lhumerus -33.5405 3.3832 76.8546
lradius 71.5585
lwrist 11.3357
lhand -37.1656 10.3705
lfingers 7.12502
lthumb -10.2344 40.1015
rfemur -13.8813 22.8623 14.2242
rtibia 28.0332
rfoot -14.557 -13.9514
rtoes -5.73276
lfemur -8.85821 -6.60576 -21.0215
ltibia 25.7547
lfoot -21.7488 19.957
ltoes -1.81014
2395
root 1.21401 18.762 -1.90889 3.32275 -15.9212 -2.12866
lowerback 7.05823 -1.16879 -3.39468
upperback -0.234689 -1.82696 0.335828
thorax -4.0864 -0.831818 2.4448
lowerneck -11.7192 -5.28519 -10.0564
upperneck 7.34794 -6.69024 11.3496
head 4.85244 -2.93281 4.65085
rclavicle 8.05078e-015 5.1684e-015
rhumerus -39.5235 -0.649967 -80.4892
rradius 21.2969
rwrist 17.5641
rhand -31.0931 10.3723
rfingers 7.12502
rthumb -4.37308 -19.5625
lclavicle 8.05078e-015 5.1684e-015
lhumerus -34.4499 4.07017 76.5914
lradius 69.905
lwrist 11.6675
lhand -37.4356 10.5993
lfingers 7.12502
lthumb -10.4949 40.3173
rfemur -14.0616 23.085 13.9622
rtibia 28.0089
rfoot -14.5367 -14.4538
rtoes -5.14937
lfemur -9.00693 -6.6145 -21.2142
ltibia 25.5747
lfoot -21.6704 19.8236
ltoes -2.07294
2396
root 1.21434 18.7551 -1.92453 3.48734 -15.5069 -2.00434
lowerback 7.11932 -1.34415 -3.64608
upperback -0.33076 -2.08713 0.304104
thorax -4.19624 -0.952021 2.58295
lowerneck -11.5752 -5.27261 -9.9677
upperneck 6.96299 -6.70049 11.6197
head 4.72004 -2.92907 4.72371
rclavicle -5.41191e-014 1.63003e-014
rhumerus -40.1129 -0.701642 -80.3411
rradius 21.3113
rwrist 18.6249
rhand -31.3718 10.8315
rfingers 7.12502
rthumb -4.6422 -19.0977
lclavicle -5.41191e-014 1.63003e-014
lhumerus -35.215 4.52114 76.3198
lradius 68.2349
lwrist 12.1641
lhand -37.6019 10.8656
lfingers 7.12502
lthumb -10.6553 40.5754
rfemur -14.2294 23.2283 13.836
rtibia 27.9884
rfoot -14.5265 -15.4429
rtoes -4.30532
lfemur -9.30209 -6.47827 -21.2516
ltibia 25.466
lfoot -21.2625 19.5855
ltoes -3.02212
2397
root 1.21254 18.7462 -1.93956 3.58234 -15.0445 -1.71528
lowerback 7.17277 -1.53856 -4.02945
upperback -0.346503 -2.38608 0.191975
thorax -4.21164 -1.09231 2.71389
lowerneck -11.5732 -5.32049 -9.86263
upperneck 6.54703 -6.78412 11.9365
head 4.61198 -2.95538 4.79955
rclavicle -1.39149e-015 -3.57812e-015
rhumerus -40.5706 -0.573556 -80.3978
rradius 21.5355
rwrist 18.8646
rhand -31.4263 11.2488
rfingers 7.12502
rthumb -4.69476 -18.6791
lclavicle -1.39149e-015 -3.57812e-015
lhumerus -35.8268 4.87521 76.0015
lradius 66.6536
lwrist 13.0231
lhand -37.5232 10.7799
lfingers 7.12502
lthumb -10.5794 40.4936
rfemur -14.3109 23.158 13.5785
rtibia 27.9511
rfoot -14.3685 -16.6876
rtoes -4.25727
lfemur -9.63609 -6.16421 -21.4528
ltibia 25.468
lfoot -20.8023 19.0426
ltoes -3.32023
2398
root 1.20935 18.7379 -1.95039 3.60903 -14.5889 -1.26257
lowerback 7.2144 -1.73706 -4.55049
upperback -0.366434 -2.70398 0.0437998
thorax -4.21625 -1.2394 2.88577
lowerneck -11.4856 -5.39688 -9.86696
upperneck 6.13143 -6.89366 12.2516
head 4.497 -3.0013 4.89199
rclavicle 2.77305e-014 4.77083e-015
rhumerus -41.1312 -0.52266 -80.3867
rradius 21.8803
rwrist 18.838
rhand -31.7671 12.2273
rfingers 7.12502
rthumb -5.02381 -17.6931
lclavicle 2.77305e-014 4.77083e-015
lhumerus -36.5566 5.1455 75.685
lradius 65.1856
lwrist 14.0495
lhand -37.3446 10.4175
lfingers 7.12502
lthumb -10.4071 40.1399
rfemur -14.3464 23.0775 13.1626
rtibia 27.9605
rfoot -14.4967 -17.7662
rtoes -4.92028
lfemur -9.90393 -5.74741 -21.8569
ltibia 25.4795
lfoot -20.4251 18.3067
ltoes -2.46566
2399
root 1.20438 18.7333 -1.96809 3.65434 -14.0743 -0.864167
lowerback 7.39388 -1.92655 -5.04851
upperback -0.404998 -3.01606 -0.0769561
thorax -4.3143 -1.38046 3.07895
lowerneck -11.5008 -5.52061 -9.92804
upperneck 5.80972 -7.0591 12.5899
head 4.43778 -3.071 4.99438
rclavicle 2.43511e-014 5.56597e-015
rhumerus -41.611 -0.867637 -80.1293
rradius 22.1543
rwrist 18.9626
rhand -32.256 13.6488
rfingers 7.12502
rthumb -5.49586 -16.26
lclavicle 2.43511e-014 5.56597e-015
lhumerus -37.1047 5.30672 75.4369
lradius 63.5653
lwrist 14.9904
lhand -37.3496 10.491
lfingers 7.12502
lthumb -10.4119 40.2132
rfemur -14.427 23.001 12.819
rtibia 28.0254
rfoot -14.8669 -18.5421
rtoes -5.81028
lfemur -10.2182 -5.21873 -22.1809
ltibia 25.4703
lfoot -19.8781 17.5419
ltoes -2.29036
2400
root 1.19769 18.7293 -1.9879 3.62884 -13.5745 -0.364239
lowerback 7.60756 -2.09027 -5.64231
upperback -0.399347 -3.30746 -0.238306
thorax -4.38082 -1.51063 3.28231
lowerneck -11.6511 -5.65291 -9.97048
upperneck 5.59431 -7.23836 12.9441
head 4.43586 -3.14055 5.09503
rclavicle -2.49972e-014 -1.27222e-014
rhumerus -42.011 -1.24973 -79.9236
rradius 22.4683
rwrist 18.8079
rhand -32.2688 13.3842
rfingers 7.12502
rthumb -5.50831 -16.5242
lclavicle -2.49972e-014 -1.27222e-014
lhumerus -37.4182 5.43118 75.2216
lradius 61.7377
lwrist 15.7398
lhand -37.3316 10.8414
lfingers 7.12502
lthumb -10.3945 40.5645
rfemur -14.4732 22.7892 12.419
rtibia 28.1223
rfoot -15.1618 -19.0119
rtoes -6.01525
lfemur -10.4945 -4.59155 -22.6034
ltibia 25.4439
lfoot -19.2616 16.7212
ltoes -3.03556
2401
root 1.19087 18.723 -2.00481 3.56988 -13.2091 0.0967837
lowerback 7.76032 -2.18335 -6.12328
upperback -0.368643 -3.49418 -0.444757
thorax -4.40268 -1.59381 3.36146
lowerneck -11.7329 -5.78862 -10.0172
upperneck 5.39144 -7.42791 13.3004
head 4.42883 -3.21765 5.19719
rclavicle -2.26615e-014 2.14687e-014
rhumerus -42.5066 -1.72561 -79.7433
rradius 22.896
rwrist 18.3432
rhand -31.4868 11.6988
rfingers 7.12502
rthumb -4.75319 -18.2279
lclavicle -2.26615e-014 2.14687e-014
lhumerus -37.6401 5.34033 75.0195
lradius 59.7752
lwrist 16.348
lhand -37.4975 10.8891
lfingers 7.12502
lthumb -10.5545 40.604
rfemur -14.4623 22.6016 12.0846
rtibia 28.2139
rfoot -15.4743 -19.4794
rtoes -5.24677
lfemur -10.6889 -3.8799 -22.9953
ltibia 25.4245
lfoot -18.8334 15.8267
ltoes -3.2209
